<svg width="50" height="50" viewBox="0 0 50 50" fill="none" xmlns="http://www.w3.org/2000/svg">
<rect width="50" height="50" rx="25" fill="#6B0000"/>
<g clip-path="url(#clip0_256_1011)">
<path d="M20.1967 11.4048L16.4922 19.8854L17.675 20.4021L21.3795 11.9215L20.1967 11.4048Z" fill="#F8EF18"/>
<path d="M29.6727 11.1953L28.4922 11.7173L32.3343 20.4066L33.5148 19.8846L29.6727 11.1953Z" fill="#F8EF18"/>
<path d="M39.1728 22.7705H10.796C9.52868 22.7705 8.5 21.7418 8.5 20.4745V19.8135C8.5 18.5462 9.52868 17.5176 10.796 17.5176H15.0867V18.8083H10.796C10.2405 18.8083 9.79074 19.2581 9.79074 19.8135V20.4745C9.79074 21.0299 10.2405 21.4797 10.796 21.4797H39.1728C39.7282 21.4797 40.178 21.0299 40.178 20.4745V19.8135C40.178 19.2581 39.7282 18.8083 39.1728 18.8083H34.882V17.5176H39.1728C40.44 17.5176 41.4687 18.5462 41.4687 19.8135V20.4745C41.4687 21.7418 40.4361 22.7705 39.1728 22.7705Z" fill="#F8EF18"/>
<path d="M32.2806 17.521H17.7617V18.8118H32.2806V17.521Z" fill="#F8EF18"/>
<path d="M33.4265 37.9502H16.5373C14.613 37.9502 12.9819 36.5734 12.6495 34.6803L10.3574 21.4795H39.6103L37.3144 34.6803C36.9819 36.5734 35.347 37.9502 33.4265 37.9502ZM11.8907 22.7703L13.9246 34.4574C14.1475 35.7325 15.2466 36.6555 16.5413 36.6555H33.4304C34.7251 36.6555 35.8242 35.7286 36.0471 34.4574L38.081 22.7703H11.8907Z" fill="#F8EF18"/>
<path d="M18.8808 33.7887C18.5523 33.7887 18.2707 33.5384 18.2394 33.2059L17.5823 26.3493C17.5471 25.9934 17.8091 25.6805 18.1651 25.6453C18.521 25.6101 18.8339 25.8721 18.8691 26.2281L19.5262 33.0847C19.5614 33.4406 19.2993 33.7535 18.9434 33.7887C18.9238 33.7887 18.9043 33.7887 18.8808 33.7887Z" fill="#F8EF18"/>
<path d="M31.2564 33.7885C31.2369 33.7885 31.2134 33.7885 31.1938 33.7846C30.8379 33.7494 30.5798 33.4365 30.611 33.0806L31.2681 26.224C31.3033 25.868 31.6163 25.6099 31.9722 25.6412C32.3281 25.6764 32.5863 25.9893 32.555 26.3452L31.8979 33.2018C31.8666 33.5382 31.585 33.7885 31.2564 33.7885Z" fill="#F8EF18"/>
<path d="M25.0448 33.7884C24.6888 33.7884 24.3994 33.499 24.3994 33.143V26.2865C24.3994 25.9305 24.6888 25.6411 25.0448 25.6411C25.4007 25.6411 25.6901 25.9305 25.6901 26.2865V33.143C25.6901 33.499 25.4007 33.7884 25.0448 33.7884Z" fill="#F8EF18"/>
<path d="M21.3526 12.5421C20.0853 12.5421 19.0566 11.5134 19.0566 10.2462C19.0566 8.97888 20.0853 7.9502 21.3526 7.9502C22.6198 7.9502 23.6485 8.97888 23.6485 10.2462C23.6485 11.5134 22.6198 12.5421 21.3526 12.5421ZM21.3526 9.24094C20.7971 9.24094 20.3473 9.69075 20.3473 10.2462C20.3473 10.8016 20.7971 11.2514 21.3526 11.2514C21.908 11.2514 22.3578 10.8016 22.3578 10.2462C22.3578 9.69075 21.908 9.24094 21.3526 9.24094Z" fill="#F8EF18"/>
<path d="M28.6123 12.5421C27.345 12.5421 26.3164 11.5134 26.3164 10.2462C26.3164 8.97888 27.345 7.9502 28.6123 7.9502C29.8796 7.9502 30.9083 8.97888 30.9083 10.2462C30.9083 11.5134 29.8796 12.5421 28.6123 12.5421ZM28.6123 9.24094C28.0569 9.24094 27.6071 9.69075 27.6071 10.2462C27.6071 10.8016 28.0569 11.2514 28.6123 11.2514C29.1677 11.2514 29.6175 10.8016 29.6175 10.2462C29.6175 9.69075 29.1677 9.24094 28.6123 9.24094Z" fill="#F8EF18"/>
</g>
<defs>
<clipPath id="clip0_256_1011">
<rect width="33" height="30" fill="white" transform="translate(8.5 7.9502)"/>
</clipPath>
</defs>
</svg>
