<svg width="20" height="20" viewBox="0 0 20 20" fill="none" xmlns="http://www.w3.org/2000/svg">
<g clip-path="url(#clip0_13_3590)">
<g clip-path="url(#clip1_13_3590)">
<mask id="mask0_13_3590" style="mask-type:luminance" maskUnits="userSpaceOnUse" x="0" y="0" width="20" height="20">
<path d="M0 0H20V20H0V0Z" fill="white"/>
</mask>
<g mask="url(#mask0_13_3590)">
<path d="M8.808 0C3.95 0 0 3.951 0 8.808C0 13.664 3.951 17.615 8.808 17.615C13.664 17.615 17.615 13.665 17.615 8.808C17.615 3.951 13.665 0 8.808 0ZM8.808 15.99C4.848 15.99 1.626 12.767 1.626 8.808C1.626 4.848 4.848 1.626 8.808 1.626C12.768 1.626 15.989 4.848 15.989 8.808C15.989 12.768 12.767 15.99 8.808 15.99Z" fill="#F8EF18"/>
<path d="M19.762 18.612L15.1 13.951C15.0245 13.8755 14.9348 13.8156 14.8362 13.7747C14.7375 13.7339 14.6318 13.7128 14.525 13.7128C14.4182 13.7128 14.3124 13.7339 14.2138 13.7747C14.1151 13.8156 14.0255 13.8755 13.95 13.951C13.8745 14.0265 13.8146 14.1162 13.7737 14.2148C13.7328 14.3135 13.7118 14.4192 13.7118 14.526C13.7118 14.6328 13.7328 14.7385 13.7737 14.8372C13.8146 14.9358 13.8745 15.0255 13.95 15.101L18.612 19.761C18.6873 19.8369 18.7768 19.8971 18.8755 19.9382C18.9742 19.9793 19.0801 20.0005 19.187 20.0005C19.2939 20.0005 19.3997 19.9793 19.4984 19.9382C19.5971 19.8971 19.6867 19.8369 19.762 19.761C19.9142 19.6086 19.9997 19.4019 19.9997 19.1865C19.9997 18.9711 19.9142 18.7644 19.762 18.612Z" fill="#F8EF18"/>
</g>
</g>
</g>
<defs>
<clipPath id="clip0_13_3590">
<rect width="20" height="20" fill="white"/>
</clipPath>
<clipPath id="clip1_13_3590">
<rect width="20" height="20" fill="white"/>
</clipPath>
</defs>
</svg>
