<svg width="150" height="150" viewBox="0 0 150 150" fill="none" xmlns="http://www.w3.org/2000/svg">
<rect width="150" height="150" fill="#CCCCCC"/>
<rect width="150" height="150" stroke="black"/>
<path d="M82.5916 79.7715C82.5916 84.2431 78.9717 87.863 74.5 87.863C70.0283 87.863 66.4084 84.2431 66.4084 79.7715C66.4084 75.2998 70.0283 71.6799 74.5 71.6799C78.9717 71.6799 82.5916 75.2998 82.5916 79.7715ZM99.1505 59.4924C102.382 59.4924 105 62.1103 105 65.3419V80.6733V93.675C105 97.1195 102.207 99.9127 98.7622 99.9127H50.2378C46.7932 99.9127 44 97.1195 44 93.675V80.6608V65.3419C44 62.1103 46.6179 59.4924 49.8495 59.4924H61.5485L62.0996 57.1626C62.9388 53.5552 66.1579 51 69.8655 51H79.147C82.8546 51 86.0737 53.5552 86.9129 57.1626L87.4515 59.4924H99.1505ZM56.2 67.9347C56.2 66.3189 54.8848 65.0037 53.269 65.0037C51.6407 65.0037 50.3255 66.3189 50.3255 67.9347C50.3255 69.5505 51.6407 70.8657 53.2565 70.8657C54.8848 70.8782 56.2 69.563 56.2 67.9347ZM88.9296 79.7715C88.9296 71.8051 82.4663 65.3419 74.5 65.3419C66.5337 65.3419 60.0704 71.8051 60.0704 79.7715C60.0704 87.7378 66.5337 94.201 74.5 94.201C82.4663 94.201 88.9296 87.7378 88.9296 79.7715Z" fill="#757474"/>
</svg>
