<svg width="18" height="22" viewBox="0 0 18 22" fill="none" xmlns="http://www.w3.org/2000/svg">
<path fill-rule="evenodd" clip-rule="evenodd" d="M16.0887 6.02333H1.79961C1.11434 6.02333 0.622501 6.44371 0.691185 7.23418L1.90421 20.8644C1.95276 21.4386 2.25908 22 2.9029 22H14.9866C15.5246 21.9686 15.9237 21.5809 15.977 20.9624L17.1793 7.26384C17.248 6.4738 16.7945 6.02333 16.0887 6.02333ZM17.0333 1.63983H11.6463V1.20785C11.6463 0.522684 11.2437 0 10.5797 0H7.37132C6.68842 0 6.27987 0.50592 6.27987 1.20398V1.63983H0.806448C0.783948 1.63983 0.762632 1.64284 0.740132 1.64542C0.336317 1.6854 0.0236848 2.03314 0.00236904 2.47157C0.00118483 2.50553 7.15256e-07 2.53132 7.15256e-07 2.56485V4.40284C7.15256e-07 4.66031 0.186711 4.87093 0.419211 4.88383C0.440527 4.88383 0.462238 4.88512 0.483553 4.88512H17.5571C17.7908 4.88512 17.9822 4.68739 17.9988 4.43894C17.9988 4.40799 18 4.37576 18 4.34309V2.64523C18 2.17541 17.8338 1.75503 17.3361 1.65574C17.2362 1.6364 17.1351 1.63983 17.0333 1.63983ZM13.7262 10.5968C13.7463 10.1597 13.4021 9.78742 12.9553 9.76679C12.5088 9.74573 12.1287 10.0849 12.1086 10.522L11.7651 17.4261C11.745 17.8637 12.0896 18.2359 12.5361 18.2565C12.9829 18.2772 13.3626 17.9385 13.3832 17.5013L13.7262 10.5968ZM5.76434 10.522C5.74421 10.0849 5.36408 9.74573 4.91763 9.76679C4.47079 9.78742 4.12658 10.1597 4.14671 10.5968L4.48855 17.5013C4.50908 17.9385 4.88882 18.2772 5.33566 18.2565C5.78211 18.2359 6.12671 17.8637 6.10658 17.4261L5.76434 10.522ZM9.82776 10.5594C9.82776 10.1197 9.46342 9.76292 9.0154 9.76292C8.56776 9.76292 8.20303 10.1197 8.20303 10.5594V17.4639C8.20303 17.9036 8.56776 18.2604 9.0154 18.2604C9.46342 18.2604 9.82776 17.9036 9.82776 17.4639V10.5594Z" fill="#FD3B3B"/>
</svg>
