<svg width="50" height="50" viewBox="0 0 50 50" fill="none" xmlns="http://www.w3.org/2000/svg">
<path d="M28.2029 37.2502C27.9415 37.2511 27.6832 37.1934 27.4469 37.0814C27.2107 36.9693 27.0026 36.8058 26.8379 36.6027L18.3854 26.1027C18.128 25.7896 17.9873 25.3968 17.9873 24.9915C17.9873 24.5861 18.128 24.1934 18.3854 23.8802L27.1354 13.3802C27.4325 13.0229 27.8593 12.7981 28.322 12.7555C28.7848 12.7128 29.2455 12.8557 29.6029 13.1527C29.9603 13.4498 30.185 13.8766 30.2277 14.3394C30.2704 14.8021 30.1275 15.2629 29.8304 15.6202L22.0079 25.0002L29.5679 34.3802C29.7819 34.6371 29.9178 34.9499 29.9596 35.2816C30.0014 35.6133 29.9473 35.9501 29.8037 36.252C29.6601 36.5539 29.433 36.8084 29.1493 36.9853C28.8657 37.1622 28.5372 37.2541 28.2029 37.2502Z" fill="white"/>
</svg>
