<svg width="26" height="30" viewBox="0 0 26 30" fill="none" xmlns="http://www.w3.org/2000/svg">
<g clip-path="url(#clip0_13_3599)">
<path d="M12.5238 14.452C14.5106 14.452 16.2277 13.7371 17.6342 12.3364C19.0407 10.9299 19.7499 9.21274 19.7499 7.22602C19.7499 5.2393 19.0349 3.52217 17.6342 2.11565C16.2277 0.709121 14.5106 0 12.5238 0C10.5371 0 8.82003 0.714982 7.4135 2.11565C6.00698 3.51631 5.29199 5.2393 5.29199 7.22602C5.29199 9.21274 6.00698 10.9299 7.40764 12.3364C8.81416 13.7429 10.5371 14.452 12.5238 14.452ZM8.47425 3.1764C9.60533 2.04532 10.9239 1.50029 12.5238 1.50029C14.1179 1.50029 15.4424 2.05118 16.5735 3.1764C17.7045 4.30748 18.2496 5.63196 18.2496 7.22602C18.2496 8.82008 17.6987 10.1446 16.5735 11.2756C15.4424 12.4067 14.1179 12.9517 12.5238 12.9517C10.9298 12.9517 9.60533 12.4009 8.47425 11.2756C7.34317 10.1446 6.79815 8.82594 6.79815 7.22602C6.79815 5.63196 7.34317 4.30748 8.47425 3.1764Z" fill="#6B0000"/>
<path d="M24.9775 23.0729C24.9365 22.4868 24.8545 21.848 24.7373 21.1741C24.6142 20.4942 24.4559 19.8555 24.2684 19.2694C24.075 18.6658 23.8113 18.0621 23.4831 17.4937C23.1432 16.8959 22.7447 16.3802 22.2993 15.9523C21.8304 15.5069 21.262 15.1495 20.5997 14.8857C19.9433 14.6279 19.2108 14.4931 18.4313 14.4931C18.1266 14.4931 17.8277 14.6161 17.2592 14.9912C16.9076 15.2198 16.4974 15.4835 16.0344 15.7824C15.6417 16.0344 15.1084 16.2688 14.452 16.4798C13.8132 16.6849 13.1569 16.7904 12.5181 16.7904C11.8734 16.7904 11.2229 16.6849 10.5841 16.4798C9.92772 16.2688 9.39441 16.0344 9.00176 15.7824C8.54464 15.4894 8.1344 15.2256 7.77691 14.9912C7.20258 14.6161 6.90955 14.4931 6.6048 14.4931C5.82535 14.4931 5.09279 14.6279 4.43641 14.8857C3.77417 15.1495 3.2057 15.5069 2.73686 15.9523C2.29146 16.3802 1.89295 16.8959 1.55304 17.4937C1.22485 18.068 0.961124 18.6658 0.767727 19.2694C0.58019 19.8555 0.421956 20.4942 0.298885 21.1741C0.175814 21.848 0.0937683 22.4868 0.0586052 23.0729C0.0175816 23.6472 0 24.245 0 24.8428C0 26.4075 0.498144 27.6792 1.48271 28.6111C2.4497 29.5312 3.73315 30 5.29791 30H19.7441C21.303 30 22.5864 29.5312 23.5593 28.6111C24.5439 27.6792 25.042 26.4075 25.042 24.8428C25.042 24.2391 25.0186 23.6472 24.9775 23.0729ZM22.733 27.5386C22.0649 28.1715 21.1858 28.4821 20.0313 28.4821H5.0166C3.86208 28.4821 2.97714 28.1715 2.31491 27.5386C1.66439 26.9174 1.34206 26.0676 1.34206 24.9424C1.34206 24.3563 1.35964 23.782 1.40066 23.2253C1.43583 22.6802 1.51787 22.0824 1.62922 21.4495C1.74057 20.8224 1.88709 20.2364 2.05704 19.7031C2.22114 19.1932 2.44383 18.6892 2.71928 18.2028C2.983 17.7398 3.28775 17.3413 3.6218 17.019C3.93241 16.7201 4.33092 16.4739 4.7939 16.2923C5.22172 16.1223 5.70814 16.0285 6.23559 16.0168C6.30006 16.052 6.41141 16.1164 6.59894 16.2336C6.97402 16.4798 7.4077 16.7552 7.88826 17.0658C8.42743 17.4116 9.12483 17.7222 9.95116 17.9859C10.8009 18.2614 11.6683 18.402 12.5239 18.402C13.3854 18.402 14.2469 18.2614 15.0967 17.9859C15.9289 17.7164 16.6204 17.4058 17.1655 17.06C17.6577 16.7494 18.0738 16.4739 18.4489 16.2278C18.6306 16.1106 18.7478 16.0403 18.8123 16.0109C19.3397 16.0227 19.8203 16.1164 20.254 16.2864C20.7169 16.4681 21.1155 16.7142 21.4261 17.0131C21.7601 17.3354 22.0649 17.7339 22.3286 18.1969C22.604 18.6833 22.8267 19.1873 22.9908 19.6972C23.1608 20.2305 23.3073 20.8166 23.4186 21.4437C23.53 22.0766 23.612 22.6744 23.6472 23.2194C23.6882 23.7703 23.7058 24.3505 23.7058 24.9307C23.6999 26.0735 23.3835 26.9174 22.733 27.5386Z" fill="#6B0000"/>
</g>
<defs>
<clipPath id="clip0_13_3599">
<rect width="26" height="30" fill="white"/>
</clipPath>
</defs>
</svg>
